<?xml version="1.0" encoding="UTF-8"?>
<svg xmlns="http://www.w3.org/2000/svg" xmlns:xlink="http://www.w3.org/1999/xlink" width="24pt" height="24pt" viewBox="0 0 24 24" version="1.1">
<g id="surface41542930">
<path style=" stroke:none;fill-rule:nonzero;fill:rgb(100%,100%,100%);fill-opacity:1;" d="M 22 12 C 22 16.480469 19.058594 20.269531 15 21.539062 L 15 19 C 15 18.144531 14.640625 17.378906 14.070312 16.828125 C 16.691406 16.355469 18 14.828125 18 12 C 18 10.773438 17.75 9.804688 17.261719 9.050781 C 17.480469 8.195312 17.609375 6.980469 17 6 C 15.820312 6 14.996094 6.695312 14.511719 7.265625 C 13.785156 7.089844 12.949219 7 12 7 C 11.101562 7 10.269531 7.101562 9.53125 7.304688 C 9.050781 6.730469 8.210938 6 7 6 C 6.289062 7.140625 6.578125 8.371094 6.851562 9.058594 C 6.308594 9.816406 6 10.785156 6 12 C 6 14.828125 7.308594 16.355469 9.929688 16.828125 C 9.59375 17.15625 9.335938 17.550781 9.175781 18 L 8 18 C 7.28125 18 7 17.679688 6.613281 17.160156 C 6.230469 16.640625 5.816406 16.289062 5.320312 16.144531 C 5.054688 16.113281 4.875 16.328125 5.109375 16.519531 C 5.894531 17.085938 5.949219 18.011719 6.265625 18.613281 C 6.550781 19.160156 7.140625 19.5 7.804688 19.5 L 9 19.5 L 9 21.539062 C 4.941406 20.269531 2 16.480469 2 12 C 2 6.476562 6.476562 2 12 2 C 17.523438 2 22 6.476562 22 12 Z M 22 12 "/>
</g>
</svg>
