<svg width="446" height="504" viewBox="0 0 446 504" fill="none" xmlns="http://www.w3.org/2000/svg">
<path d="M445.572 100.636H0V504H445.572V100.636Z" fill="#1BB1B2"/>
<path style="mix-blend-mode:overlay" opacity="0.43" d="M362.683 434.776H87.3513L190.265 196.69H259.768L362.683 434.776Z" fill="url(#paint0_linear)"/>
<path d="M81.3445 368.198L84.8342 350.42L103.178 345.975" stroke="#283035" stroke-width="8" stroke-linecap="round" stroke-linejoin="round"/>
<path d="M138.439 308.224H288.944C290.966 308.224 292.905 309.083 294.335 310.611C295.765 312.14 296.569 314.213 296.569 316.375V422.531H130.816V316.374C130.816 314.213 131.619 312.14 133.049 310.612C134.478 309.084 136.417 308.225 138.439 308.224Z" fill="#D2DCE6"/>
<path d="M138.439 308.224H288.944C290.966 308.224 292.905 309.083 294.335 310.611C295.765 312.14 296.569 314.213 296.569 316.375V422.531H130.816V316.374C130.816 314.213 131.619 312.14 133.049 310.612C134.478 309.084 136.417 308.225 138.439 308.224V308.224Z" stroke="#283035" stroke-width="6" stroke-linecap="round" stroke-linejoin="round"/>
<path d="M284.093 409.33V321.695H143.292V409.33H284.093Z" fill="#FF5C5C"/>
<path opacity="0.3" d="M225.017 395.349H248.187" stroke="white" stroke-width="6" stroke-linecap="round" stroke-linejoin="round"/>
<g opacity="0.3">
<path opacity="0.3" d="M281.503 368.108C281.949 368.078 282.392 368.209 282.759 368.481C283.127 368.752 283.398 369.148 283.529 369.605V364.149C283.04 363.996 282.533 363.917 282.023 363.915H281.503C280.382 363.915 279.822 364.514 279.822 365.712V366.353C279.822 367.509 280.382 368.108 281.503 368.108Z" fill="white"/>
<path opacity="0.3" d="M283.529 394.26C283.396 394.714 283.123 395.107 282.756 395.376C282.389 395.646 281.948 395.776 281.503 395.746C280.382 395.746 279.822 396.345 279.822 397.542V398.184C279.822 399.382 280.383 399.981 281.503 399.981H282.023C282.533 399.979 283.04 399.9 283.529 399.747V394.26Z" fill="white"/>
</g>
<path d="M284.093 409.33V321.695H143.292V409.33H284.093Z" stroke="#283035" stroke-width="6" stroke-linecap="round" stroke-linejoin="round"/>
<path d="M112.526 422.601H314.86C315.333 422.601 315.786 422.802 316.12 423.159C316.455 423.516 316.642 424.001 316.642 424.506V426.788C316.642 429.315 315.704 431.737 314.032 433.524C312.361 435.31 310.094 436.314 307.731 436.314H119.655C117.292 436.314 115.025 435.31 113.354 433.524C111.683 431.737 110.744 429.315 110.744 426.788V424.506C110.744 424.001 110.932 423.516 111.266 423.159C111.6 422.802 112.053 422.601 112.526 422.601Z" fill="#E5E5E5"/>
<path d="M307.729 432.025H119.653C117.516 432.024 115.451 431.201 113.835 429.707C112.218 428.213 111.158 426.147 110.848 423.887C110.781 424.086 110.746 424.295 110.744 424.506V426.788C110.744 429.315 111.683 431.737 113.354 433.524C115.025 435.31 117.292 436.314 119.655 436.314H307.731C310.094 436.314 312.361 435.31 314.032 433.524C315.704 431.737 316.642 429.315 316.642 426.788V424.506C316.64 424.295 316.605 424.086 316.538 423.887C316.228 426.148 315.167 428.214 313.55 429.708C311.933 431.202 309.867 432.025 307.729 432.025Z" fill="#CFD1D0"/>
<path d="M112.526 422.601H314.86C315.333 422.601 315.786 422.802 316.12 423.159C316.455 423.516 316.642 424.001 316.642 424.506V426.788C316.642 429.315 315.704 431.737 314.032 433.524C312.361 435.31 310.095 436.314 307.731 436.314H119.655C117.292 436.314 115.025 435.31 113.354 433.524C111.683 431.737 110.744 429.315 110.744 426.788V424.506C110.744 424.001 110.932 423.516 111.266 423.159C111.6 422.802 112.053 422.601 112.526 422.601Z" stroke="#283035" stroke-width="6" stroke-linecap="round" stroke-linejoin="round"/>
<path d="M194.978 422.531H232.406C232.406 423.542 232.031 424.511 231.362 425.225C230.694 425.94 229.787 426.341 228.842 426.341H198.543C197.597 426.341 196.691 425.94 196.022 425.225C195.354 424.511 194.978 423.542 194.978 422.531Z" fill="#686B6D"/>
<path d="M194.978 422.531H232.406C232.406 423.542 232.031 424.511 231.362 425.225C230.694 425.94 229.787 426.341 228.842 426.341H198.543C197.597 426.341 196.691 425.94 196.022 425.225C195.354 424.511 194.978 423.542 194.978 422.531Z" stroke="#283035" stroke-width="4" stroke-linecap="round" stroke-linejoin="round"/>
<path d="M213.342 318.591C215.31 318.591 216.906 316.885 216.906 314.781C216.906 312.676 215.31 310.97 213.342 310.97C211.373 310.97 209.777 312.676 209.777 314.781C209.777 316.885 211.373 318.591 213.342 318.591Z" fill="#686B6D"/>
<path d="M213.342 318.591C215.31 318.591 216.906 316.885 216.906 314.781C216.906 312.676 215.31 310.97 213.342 310.97C211.373 310.97 209.777 312.676 209.777 314.781C209.777 316.885 211.373 318.591 213.342 318.591Z" stroke="#283035" stroke-width="4" stroke-linecap="round" stroke-linejoin="round"/>
<path d="M68.3752 436.312H90.2528C91.0117 436.312 91.7446 436.016 92.3142 435.48C92.8837 434.944 93.2509 434.204 93.3468 433.399L99.1905 384.39H59.4392L65.2834 433.399C65.3793 434.204 65.7461 434.943 66.3152 435.479C66.8843 436.015 67.6166 436.311 68.3752 436.312Z" fill="#EAD57D"/>
<path d="M65.5204 384.391L70.157 429.654C70.2524 430.585 70.666 431.446 71.3185 432.071C71.9709 432.696 72.8164 433.042 73.6926 433.042H93.3918L93.3495 433.399C93.2535 434.204 92.8864 434.944 92.3168 435.48C91.7473 436.016 91.0144 436.312 90.2554 436.312H68.3779C67.619 436.312 66.8862 436.016 66.3167 435.48C65.7473 434.944 65.3802 434.204 65.2843 433.399L59.4392 384.391H65.5204Z" fill="#E5C66E"/>
<path d="M68.3752 436.312H90.2528C91.0117 436.312 91.7446 436.016 92.3142 435.48C92.8837 434.944 93.2509 434.204 93.3468 433.399L99.1905 384.39H59.4392L65.2834 433.399C65.3793 434.204 65.7461 434.943 66.3152 435.479C66.8843 436.015 67.6166 436.311 68.3752 436.312V436.312Z" stroke="#283035" stroke-width="6" stroke-linecap="round" stroke-linejoin="round"/>
<path d="M97.6916 422.203L100.518 398.5H58.1115L60.9377 422.203H97.6916Z" fill="#5CBF84"/>
<path d="M97.6916 422.203L100.518 398.5H58.1115L60.9377 422.203H97.6916Z" fill="#4FB277"/>
<path d="M97.5161 419.464L99.8861 398.5H64.3259L66.5092 417.801C66.5611 418.26 66.7684 418.682 67.092 418.989C67.4155 419.295 67.8328 419.464 68.2652 419.464H97.5161Z" fill="#5CBF84"/>
<path d="M97.6916 422.203L100.518 398.5H58.1115L60.9377 422.203H97.6916Z" stroke="#283035" stroke-width="6" stroke-linecap="round" stroke-linejoin="round"/>
<path d="M56.8853 384.391H101.745C104.451 384.391 106.646 382.045 106.646 379.152C106.646 376.258 104.451 373.913 101.745 373.913H56.8853C54.1784 373.913 51.984 376.258 51.984 379.152C51.984 382.045 54.1784 384.391 56.8853 384.391Z" fill="#5CBF84"/>
<path d="M56.8853 384.391H101.745C104.451 384.391 106.646 382.045 106.646 379.152C106.646 376.258 104.451 373.913 101.745 373.913H56.8853C54.1784 373.913 51.984 376.258 51.984 379.152C51.984 382.045 54.1784 384.391 56.8853 384.391Z" fill="#4FB277"/>
<path d="M61.954 382.128H102.802C104.925 382.128 106.645 380.289 106.645 378.021C106.645 375.752 104.925 373.913 102.802 373.913H61.954C59.8316 373.913 58.111 375.752 58.111 378.021C58.111 380.289 59.8316 382.128 61.954 382.128Z" fill="#5CBF84"/>
<path d="M56.8853 384.391H101.745C104.451 384.391 106.646 382.045 106.646 379.152C106.646 376.258 104.451 373.913 101.745 373.913H56.8853C54.1784 373.913 51.984 376.258 51.984 379.152C51.984 382.045 54.1784 384.391 56.8853 384.391Z" stroke="#283035" stroke-width="6" stroke-linecap="round" stroke-linejoin="round"/>
<path d="M61.4916 373.913H97.1373L96.432 368.198H62.1974L61.4916 373.913Z" fill="#5CBF84"/>
<path d="M62.1974 368.198H72.6558L70.1802 373.913H61.4916L62.1974 368.198Z" fill="#54AF79"/>
<path d="M61.4916 373.913H97.1373L96.432 368.198H62.1974L61.4916 373.913Z" stroke="#283035" stroke-width="6" stroke-linecap="round" stroke-linejoin="round"/>
<path d="M321.317 436.359C321.337 432.711 322.707 429.22 325.127 426.648C327.547 424.076 330.821 422.633 334.234 422.633C337.647 422.633 340.921 424.076 343.341 426.648C345.761 429.22 347.131 432.711 347.151 436.359H321.317Z" fill="#E5E5E5"/>
<path d="M334.234 431.998C336.081 432.017 337.911 431.613 339.6 430.813C341.289 430.013 342.798 428.836 344.026 427.361C342.814 425.852 341.312 424.642 339.622 423.812C337.932 422.982 336.094 422.552 334.234 422.552C332.374 422.552 330.536 422.982 328.846 423.812C327.156 424.642 325.654 425.852 324.442 427.361C325.67 428.836 327.179 430.013 328.868 430.813C330.557 431.613 332.387 432.017 334.234 431.998Z" fill="#CFD1D0"/>
<path d="M321.317 436.359C321.337 432.711 322.707 429.22 325.127 426.648C327.547 424.076 330.821 422.633 334.234 422.633C337.647 422.633 340.921 424.076 343.341 426.648C345.761 429.22 347.131 432.711 347.151 436.359H321.317Z" stroke="#283035" stroke-width="6" stroke-linecap="round" stroke-linejoin="round"/>
<g style="mix-blend-mode:multiply" opacity="0.14">
<path d="M234.816 338.672H167.096C165.126 338.672 163.528 340.379 163.528 342.486V398.679C163.528 400.786 165.126 402.493 167.096 402.493H234.816C236.787 402.493 238.384 400.786 238.384 398.679V342.486C238.384 340.379 236.787 338.672 234.816 338.672Z" fill="black"/>
</g>
<path d="M231.326 335.338H163.606C161.635 335.338 160.038 337.045 160.038 339.152V395.345C160.038 397.452 161.635 399.159 163.606 399.159H231.326C233.296 399.159 234.894 397.452 234.894 395.345V339.152C234.894 337.045 233.296 335.338 231.326 335.338Z" fill="#353F49"/>
<path d="M231.326 335.338H163.606C161.635 335.338 160.038 337.045 160.038 339.152V395.345C160.038 397.452 161.635 399.159 163.606 399.159H231.326C233.296 399.159 234.894 397.452 234.894 395.345V339.152C234.894 337.045 233.296 335.338 231.326 335.338Z" stroke="#283035" stroke-width="4" stroke-linecap="round" stroke-linejoin="round"/>
<path d="M163.605 335.338H231.326C232.272 335.338 233.18 335.74 233.849 336.455C234.518 337.17 234.894 338.14 234.894 339.152V344.863H160.038V339.152C160.038 338.14 160.414 337.17 161.083 336.455C161.752 335.74 162.659 335.338 163.605 335.338Z" fill="#EAEEEF"/>
<path d="M163.605 335.338H231.326C232.272 335.338 233.18 335.74 233.849 336.455C234.518 337.17 234.894 338.14 234.894 339.152V344.863H160.038V339.152C160.038 338.14 160.414 337.17 161.083 336.455C161.752 335.74 162.659 335.338 163.605 335.338Z" stroke="#283035" stroke-width="4" stroke-linecap="round" stroke-linejoin="round"/>
<path opacity="0.35" d="M166.424 341.589C167.193 341.589 167.817 340.923 167.817 340.101C167.817 339.279 167.193 338.612 166.424 338.612C165.655 338.612 165.032 339.279 165.032 340.101C165.032 340.923 165.655 341.589 166.424 341.589Z" fill="#283035"/>
<path opacity="0.35" d="M170.806 341.589C171.575 341.589 172.198 340.923 172.198 340.101C172.198 339.279 171.575 338.612 170.806 338.612C170.037 338.612 169.413 339.279 169.413 340.101C169.413 340.923 170.037 341.589 170.806 341.589Z" fill="#283035"/>
<path opacity="0.35" d="M174.965 341.589C175.734 341.589 176.357 340.923 176.357 340.101C176.357 339.279 175.734 338.612 174.965 338.612C174.196 338.612 173.572 339.279 173.572 340.101C173.572 340.923 174.196 341.589 174.965 341.589Z" fill="#283035"/>
<path d="M163.528 348.197H168.429" stroke="#46BB86" stroke-width="3" stroke-miterlimit="10"/>
<path d="M170.212 348.197H183.579" stroke="#46BB86" stroke-width="3" stroke-miterlimit="10"/>
<path d="M163.528 352.008H183.579" stroke="#389ABE" stroke-width="3" stroke-miterlimit="10"/>
<path d="M167.538 355.818H177.341" stroke="#E5C689" stroke-width="3" stroke-miterlimit="10"/>
<path d="M179.123 355.818H189.817" stroke="#F2F3F4" stroke-width="3" stroke-miterlimit="10"/>
<path d="M172.885 359.628H193.381" stroke="#F2F3F4" stroke-width="3" stroke-miterlimit="10"/>
<path d="M172.885 363.438H188.034" stroke="#FFA49F" stroke-width="3" stroke-miterlimit="10"/>
<path d="M167.538 367.248H189.817" stroke="#F2F3F4" stroke-width="3" stroke-miterlimit="10"/>
<path d="M163.528 370.582H175.558" stroke="#389ABE" stroke-width="3" stroke-miterlimit="10"/>
<g opacity="0.3">
<path opacity="0.3" d="M267.184 389.034C267.184 387.152 266.503 385.826 265.142 385.013C264.182 384.456 263.782 384.028 263.782 383.045V381.378C263.782 380.223 264.262 379.966 265.102 379.367C266.503 378.725 267.184 377.357 267.184 375.303V371.666C267.184 368.757 268.184 366.617 269.625 365.719C270.703 364.898 271.984 364.436 273.308 364.393H273.828C274.948 364.393 275.509 364.992 275.509 366.19V366.829C275.509 367.984 274.949 368.583 273.828 368.583C272.268 368.583 271.507 369.781 271.507 372.219V376.712C271.546 377.802 271.292 378.882 270.774 379.823C270.256 380.763 269.496 381.525 268.585 382.017L268.224 382.145V382.231C268.635 382.361 269.017 382.579 269.345 382.873C270.346 383.514 271.507 385.012 271.507 387.621V392.627C271.507 395.023 272.267 396.221 273.828 396.221C274.948 396.221 275.509 396.82 275.509 398.018V398.66C275.509 399.857 274.949 400.456 273.828 400.457H273.308C271.984 400.413 270.703 399.952 269.625 399.13C268.184 398.232 267.184 396.05 267.184 393.183V389.034Z" fill="white"/>
</g>
<path d="M66.3559 411.972L67.247 411.045C70.6287 413.975 74.8495 415.574 79.2026 415.574C83.5557 415.574 87.7765 413.975 91.1582 411.045L92.2721 412.209" stroke="#283035" stroke-width="3" stroke-linecap="round" stroke-linejoin="round"/>
<path d="M76.4708 407.17C76.4708 406.629 76.2698 406.11 75.9121 405.728C75.5544 405.346 75.0692 405.131 74.5633 405.131V405.131C74.0574 405.131 73.5722 405.346 73.2145 405.728C72.8568 406.11 72.6558 406.629 72.6558 407.17V409.037" stroke="#283035" stroke-width="3" stroke-linecap="round" stroke-linejoin="round"/>
<path d="M82.1581 407.17C82.1581 406.629 82.359 406.11 82.7167 405.728C83.0745 405.346 83.5596 405.131 84.0655 405.131V405.131C84.5714 405.131 85.0566 405.346 85.4143 405.728C85.7721 406.11 85.973 406.629 85.973 407.17V409.037" stroke="#283035" stroke-width="3" stroke-linecap="round" stroke-linejoin="round"/>
<path d="M392.389 374.443H357.723C355.484 374.443 353.669 376.383 353.669 378.777V432.025C353.669 434.419 355.484 436.359 357.723 436.359H392.389C394.628 436.359 396.444 434.419 396.444 432.025V378.777C396.444 376.383 394.628 374.443 392.389 374.443Z" fill="#E5E5E5"/>
<path d="M392.389 374.443H391.875C391.949 374.77 391.987 375.106 391.988 375.443V428.691C391.988 429.84 391.561 430.943 390.8 431.756C390.04 432.568 389.009 433.025 387.933 433.025H353.784C353.995 433.974 354.498 434.819 355.213 435.424C355.929 436.029 356.814 436.358 357.726 436.359H392.392C393.467 436.359 394.498 435.902 395.259 435.09C396.019 434.277 396.446 433.174 396.446 432.025V378.777C396.446 378.207 396.341 377.644 396.137 377.118C395.933 376.592 395.635 376.114 395.258 375.711C394.881 375.309 394.434 374.989 393.941 374.772C393.449 374.554 392.922 374.442 392.389 374.443Z" fill="#CFD1D0"/>
<path d="M392.389 374.443H357.723C355.484 374.443 353.669 376.383 353.669 378.777V432.025C353.669 434.419 355.484 436.359 357.723 436.359H392.389C394.628 436.359 396.444 434.419 396.444 432.025V378.777C396.444 376.383 394.628 374.443 392.389 374.443Z" stroke="#283035" stroke-width="6" stroke-linecap="round" stroke-linejoin="round"/>
<path d="M382.185 370.85H378.621V369.421C378.621 368.41 378.245 367.441 377.577 366.727C376.908 366.012 376.002 365.611 375.056 365.611C374.111 365.611 373.204 366.012 372.536 366.727C371.867 367.441 371.492 368.41 371.492 369.421V370.85H367.927C366.982 370.85 366.075 371.251 365.406 371.966C364.738 372.68 364.362 373.649 364.362 374.66C364.362 375.67 364.738 376.64 365.406 377.354C366.075 378.069 366.982 378.47 367.927 378.47H382.185C383.131 378.47 384.037 378.069 384.706 377.354C385.374 376.64 385.75 375.67 385.75 374.66C385.75 373.649 385.374 372.68 384.706 371.966C384.037 371.251 383.131 370.85 382.185 370.85Z" fill="#F7B66F"/>
<path d="M383.841 371.288C383.986 371.852 384.007 372.445 383.902 373.02C383.797 373.594 383.569 374.135 383.236 374.6C382.903 375.064 382.474 375.441 381.983 375.699C381.491 375.957 380.951 376.091 380.403 376.089H366.145C365.567 376.089 364.999 375.939 364.488 375.651C364.692 376.459 365.139 377.174 365.761 377.683C366.382 378.193 367.144 378.469 367.927 378.47H382.185C382.982 378.469 383.755 378.183 384.381 377.658C385.008 377.133 385.452 376.398 385.643 375.572C385.833 374.745 385.76 373.874 385.433 373.098C385.107 372.321 384.546 371.684 383.841 371.288Z" fill="#EDA762"/>
<path d="M376.838 367.039V368.468H378.504C378.38 367.954 378.156 367.473 377.847 367.056C377.539 366.639 377.152 366.296 376.712 366.049C376.795 366.372 376.837 366.705 376.838 367.039Z" fill="#EDA762"/>
<path d="M382.185 370.85H378.621V369.421C378.621 368.41 378.245 367.441 377.577 366.727C376.908 366.012 376.002 365.611 375.056 365.611C374.111 365.611 373.204 366.012 372.536 366.727C371.867 367.441 371.492 368.41 371.492 369.421V370.85H367.927C366.982 370.85 366.075 371.251 365.406 371.966C364.738 372.68 364.362 373.649 364.362 374.66C364.362 375.67 364.738 376.64 365.406 377.354C366.075 378.069 366.982 378.47 367.927 378.47H382.185C383.131 378.47 384.037 378.069 384.706 377.354C385.374 376.64 385.75 375.67 385.75 374.66C385.75 373.649 385.374 372.68 384.706 371.966C384.037 371.251 383.131 370.85 382.185 370.85Z" stroke="#283035" stroke-width="6" stroke-linecap="round" stroke-linejoin="round"/>
<path d="M375.056 392.282C377.107 392.282 378.769 390.505 378.769 388.313C378.769 386.121 377.107 384.345 375.056 384.345C373.005 384.345 371.343 386.121 371.343 388.313C371.343 390.505 373.005 392.282 375.056 392.282Z" fill="#8EAFBF"/>
<path d="M375.056 392.282C377.107 392.282 378.769 390.505 378.769 388.313C378.769 386.121 377.107 384.345 375.056 384.345C373.005 384.345 371.343 386.121 371.343 388.313C371.343 390.505 373.005 392.282 375.056 392.282Z" stroke="#283035" stroke-width="6" stroke-linecap="round" stroke-linejoin="round"/>
<path d="M360.897 400.538H369.809" stroke="#283035" stroke-width="6" stroke-linecap="round" stroke-linejoin="round"/>
<path d="M360.897 413.477H369.809" stroke="#283035" stroke-width="6" stroke-linecap="round" stroke-linejoin="round"/>
<path d="M360.897 426.416H369.809" stroke="#283035" stroke-width="6" stroke-linecap="round" stroke-linejoin="round"/>
<path d="M375.696 400.028L378.02 403.331L384.972 397.745" stroke="#8BAFC1" stroke-width="4" stroke-linecap="round" stroke-linejoin="round"/>
<path d="M375.696 412.967L378.02 416.271L384.972 410.683" stroke="#8BAFC1" stroke-width="4" stroke-linecap="round" stroke-linejoin="round"/>
<path d="M400.856 400.946L396.443 401.602L400.373 431.793L404.786 431.137L400.856 400.946Z" fill="#3BBC88"/>
<path d="M400.856 400.946L396.443 401.602L400.373 431.793L404.786 431.137L400.856 400.946Z" stroke="#283035" stroke-width="4" stroke-linecap="round" stroke-linejoin="round"/>
<path d="M404.787 431.136L400.374 431.792L403.195 436.181L404.787 431.136Z" fill="#E5E5E5"/>
<path d="M404.787 431.136L400.374 431.792L403.195 436.181L404.787 431.136Z" stroke="#283035" stroke-width="4" stroke-linecap="round" stroke-linejoin="round"/>
<path d="M399.226 396.15L396.579 396.544L397.194 401.259L399.841 400.865L399.226 396.15Z" fill="#E5E5E5"/>
<path d="M399.226 396.15L396.579 396.544L397.194 401.259L399.841 400.865L399.226 396.15Z" stroke="#283035" stroke-width="3.99829" stroke-linecap="round" stroke-linejoin="round"/>
<path d="M404.847 412.859C404.347 411.98 403.994 411.016 403.801 410.009C403.308 407.421 404.524 405.942 403.867 404.469C403.605 403.882 403.478 403.08 401.51 402.776" stroke="#283035" stroke-width="4" stroke-linecap="round" stroke-linejoin="round"/>
<path d="M410.26 436.359H421.734" stroke="#283035" stroke-width="6" stroke-linecap="round" stroke-linejoin="round"/>
<path d="M104.412 436.359H405.248" stroke="#283035" stroke-width="6" stroke-linecap="round" stroke-linejoin="round"/>
<path d="M51.1294 436.359H99.1914" stroke="#283035" stroke-width="6" stroke-linecap="round" stroke-linejoin="round"/>
<path d="M35.7941 436.359H46.1167" stroke="#283035" stroke-width="6" stroke-linecap="round" stroke-linejoin="round"/>
<path d="M225.017 209.029C230.923 209.029 235.711 203.911 235.711 197.598C235.711 191.285 230.923 186.168 225.017 186.168C219.111 186.168 214.323 191.285 214.323 197.598C214.323 203.911 219.111 209.029 225.017 209.029Z" fill="white"/>
<path d="M194.319 200.179C193.775 200.177 193.238 200.052 192.742 199.811C192.247 199.571 191.805 199.221 191.446 198.785C191.086 198.349 190.817 197.836 190.657 197.281C190.496 196.725 190.448 196.14 190.515 195.563C192.593 176.698 207.248 162.076 225.017 162.076C242.786 162.076 257.441 176.698 259.519 195.563C259.586 196.14 259.537 196.725 259.377 197.281C259.216 197.837 258.947 198.349 258.588 198.786C258.228 199.222 257.786 199.572 257.291 199.812C256.795 200.052 256.258 200.177 255.714 200.179H194.319Z" fill="#F7B66F"/>
<path d="M230.364 162.526C230.249 162.506 230.133 162.493 230.017 162.475C229.612 162.411 229.205 162.353 228.795 162.305C228.609 162.282 228.422 162.264 228.235 162.245C227.896 162.211 227.556 162.18 227.215 162.159C227.018 162.146 226.821 162.131 226.623 162.121C226.09 162.094 225.553 162.076 225.019 162.076C224.484 162.076 223.949 162.094 223.42 162.121C223.175 162.133 222.933 162.154 222.689 162.171C222.426 162.191 222.163 162.211 221.902 162.237C221.581 162.268 221.262 162.305 220.944 162.346C220.788 162.366 220.632 162.388 220.479 162.411C204.427 164.708 191.816 179.002 190.397 196.821C190.362 197.247 190.41 197.677 190.538 198.082C190.666 198.487 190.872 198.859 191.142 199.174C191.411 199.49 191.74 199.742 192.105 199.915C192.471 200.088 192.867 200.178 193.267 200.179H256.769C257.165 200.18 257.558 200.093 257.922 199.925C258.286 199.756 258.613 199.508 258.883 199.197C259.153 198.887 259.36 198.52 259.49 198.119C259.621 197.719 259.673 197.294 259.642 196.871C258.266 179.327 246.045 165.181 230.364 162.526ZM202.303 189.667C203.819 183.78 206.648 178.373 210.546 173.91C214.445 169.448 219.298 166.062 224.689 164.043C230.085 166.058 234.943 169.442 238.846 173.905C242.749 178.368 245.581 183.777 247.099 189.667C247.291 190.428 247.317 191.227 247.174 192C247.03 192.774 246.722 193.502 246.272 194.127C245.823 194.752 245.245 195.259 244.582 195.606C243.92 195.954 243.192 196.133 242.454 196.13H206.949C206.211 196.133 205.482 195.954 204.82 195.606C204.157 195.259 203.579 194.753 203.129 194.127C202.68 193.502 202.372 192.774 202.228 192C202.085 191.227 202.111 190.428 202.303 189.667Z" fill="#EFAA65"/>
<path d="M194.349 200.179C193.801 200.177 193.26 200.051 192.761 199.81C192.262 199.568 191.816 199.216 191.454 198.776C191.092 198.337 190.821 197.821 190.66 197.261C190.498 196.702 190.449 196.112 190.517 195.531C192.61 176.68 207.258 162.076 225.017 162.076C242.776 162.076 257.424 176.68 259.515 195.531C259.583 196.112 259.534 196.702 259.372 197.261C259.211 197.821 258.94 198.337 258.578 198.776C258.216 199.216 257.77 199.568 257.271 199.81C256.772 200.051 256.231 200.177 255.683 200.179H194.349Z" stroke="#283035" stroke-width="6" stroke-linecap="round" stroke-linejoin="round"/>
<path d="M225.017 100.636V162.076" stroke="#283035" stroke-width="6" stroke-linejoin="round"/>
<path d="M225 1L225.347 106.44" stroke="#283035" stroke-width="6" stroke-linejoin="round"/>
<defs>
<linearGradient id="paint0_linear" x1="225.017" y1="193.38" x2="225.017" y2="443.179" gradientUnits="userSpaceOnUse">
<stop stop-color="white"/>
<stop offset="0.093" stop-color="white" stop-opacity="0.864"/>
<stop offset="0.284" stop-color="white" stop-opacity="0.605"/>
<stop offset="0.466" stop-color="white" stop-opacity="0.389"/>
<stop offset="0.633" stop-color="white" stop-opacity="0.221"/>
<stop offset="0.784" stop-color="white" stop-opacity="0.1"/>
<stop offset="0.911" stop-color="white" stop-opacity="0.026"/>
<stop offset="1" stop-color="white" stop-opacity="0"/>
</linearGradient>
</defs>
</svg>
